<?xml version="1.0" standalone="no"?>
<!DOCTYPE svg PUBLIC "-//W3C//DTD SVG 1.1//EN" "http://www.w3.org/Graphics/SVG/1.1/DTD/svg11.dtd" >
<svg xmlns="http://www.w3.org/2000/svg">
<metadata></metadata>
<defs>
<font id="karbonregular" horiz-adv-x="1441" >
<font-face units-per-em="2048" ascent="1393" descent="-655" />
<missing-glyph horiz-adv-x="389" />
<glyph unicode="&#xfb01;" horiz-adv-x="1009" d="M41 788v105h137v184q0 155 84.5 245.5t229.5 90.5q131 0 221 -65v-123q-103 78 -221 78q-92 0 -141.5 -58.5t-49.5 -167.5v-184h555v-893h-123v788h-432v-788h-123v788h-137z" />
<glyph unicode="&#xfb02;" horiz-adv-x="1009" d="M41 788v105h137v225q0 140 70.5 217.5t200.5 77.5q78 0 135 -31v-114q-56 39 -135 39q-148 0 -148 -191v-223h246v-105h-246v-788h-123v788h-137zM733 0v1393h123v-1393h-123z" />
<glyph unicode="&#xfb03;" horiz-adv-x="1564" d="M41 788v105h137v201q0 140 70.5 217.5t200.5 77.5q78 0 135 -31v-115q-56 39 -135 39q-148 0 -148 -190v-199h432v184q0 155 84.5 245.5t229.5 90.5q131 0 221 -65v-123q-103 78 -221 78q-92 0 -141.5 -58.5t-49.5 -167.5v-184h555v-893h-123v788h-432v-788h-123v788 h-432v-788h-123v788h-137z" />
<glyph unicode="&#xfb04;" horiz-adv-x="1564" d="M41 788v105h137v201q0 140 70.5 217.5t200.5 77.5q78 0 135 -31v-115q-56 39 -135 39q-148 0 -148 -190v-199h432v225q0 140 70.5 217.5t200.5 77.5q78 0 135 -31v-114q-56 39 -135 39q-148 0 -148 -191v-223h246v-105h-246v-788h-123v788h-432v-788h-123v788h-137z M1288 0v1393h123v-1393h-123z" />
<glyph horiz-adv-x="2048" />
<glyph horiz-adv-x="2048" />
<glyph unicode="&#xd;" horiz-adv-x="2048" />
<glyph unicode=" "  horiz-adv-x="389" />
<glyph unicode="&#x09;" horiz-adv-x="389" />
<glyph unicode="&#xa0;" horiz-adv-x="389" />
<glyph unicode="!" horiz-adv-x="550" d="M174 84q0 41 29.5 70.5t70.5 29.5q42 0 72.5 -29.5t30.5 -70.5t-31 -71.5t-72 -30.5t-70.5 30.5t-29.5 71.5zM215 346v871h121v-871h-121z" />
<glyph unicode="&#x22;" horiz-adv-x="622" d="M123 893l41 426h117l-60 -426h-98zM342 893l41 426h117l-60 -426h-98z" />
<glyph unicode="#" horiz-adv-x="1042" d="M61 346v109h181l61 301h-176v108h197l71 353h115l-72 -353h275l71 353h115l-72 -353h154v-108h-174l-62 -301h170v-109h-192l-70 -346h-114l69 346h-274l-70 -346h-114l69 346h-158zM356 455h275l61 301h-274z" />
<glyph unicode="$" horiz-adv-x="858" d="M53 907q0 131 96 214.5t232 92.5v179h102v-181q152 -16 248 -90v-129q-131 98 -248 113v-436q166 -53 244 -130.5t78 -220.5q0 -134 -89 -213.5t-233 -99.5v-201h-102v195q-91 3 -177 36.5t-145 82.5v137q170 -145 322 -150v469q-83 25 -138 50.5t-101 63.5t-67.5 91.5 t-21.5 126.5zM176 909q0 -88 44.5 -129.5t160.5 -79.5v408q-92 -8 -148.5 -60t-56.5 -139zM483 115q91 14 145 64.5t54 139.5q0 90 -50 140t-149 86v-430z" />
<glyph unicode="%" horiz-adv-x="1417" d="M82 954q0 123 81.5 203t198.5 80q119 0 201 -80t82 -203q0 -121 -82 -200.5t-201 -79.5q-117 0 -198.5 79.5t-81.5 200.5zM197 954q0 -82 46 -128t119 -46q74 0 121 46t47 128q0 84 -46.5 130t-121.5 46q-73 0 -119 -46t-46 -130zM285 0l731 1217h119l-732 -1217h-118z M772 260q0 123 82 203t199 80q119 0 200.5 -80t81.5 -203q0 -121 -81.5 -200.5t-200.5 -79.5q-117 0 -199 79.5t-82 200.5zM887 260q0 -82 46.5 -128t119.5 -46q74 0 121 46t47 128q0 84 -46.5 130t-121.5 46q-73 0 -119.5 -46t-46.5 -130z" />
<glyph unicode="&#x26;" horiz-adv-x="1130" d="M74 305q0 110 66.5 190.5t213.5 161.5l-53 56q-125 125 -125 258q0 119 77 192.5t210 73.5q143 0 222 -74.5t79 -197.5q0 -110 -62 -186t-172 -140l306 -322q73 128 73 283h113q0 -199 -109 -364l226 -236h-152l-143 147q-158 -165 -391 -165q-170 0 -274.5 86 t-104.5 237zM201 305q0 -98 72.5 -158.5t179.5 -60.5q191 0 317 139l-344 359q-113 -62 -169 -127.5t-56 -151.5zM297 971q0 -46 21.5 -88.5t70.5 -94.5l72 -73q87 47 134.5 103t47.5 147q-3 78 -52 122t-128 46q-76 0 -121 -45.5t-45 -116.5z" />
<glyph unicode="'" horiz-adv-x="403" d="M123 893l41 426h117l-60 -426h-98z" />
<glyph unicode="(" horiz-adv-x="645" d="M123 553q0 257 100 472.5t264 367.5h138q-87 -85 -151.5 -167.5t-120 -186t-84.5 -226t-29 -260.5t29 -260.5t84.5 -226t120 -186t151.5 -167.5h-138q-164 152 -264 367.5t-100 472.5z" />
<glyph unicode=")" horiz-adv-x="645" d="M20 -287q87 85 151.5 167.5t120.5 186t85 226t29 260.5t-29 260.5t-85 226t-120.5 186t-151.5 167.5h138q164 -152 264 -367.5t100 -472.5t-100 -472.5t-264 -367.5h-138z" />
<glyph unicode="*" horiz-adv-x="688" d="M61 1151l27 90l211 -74l-4 226h96l-6 -224l213 74l29 -90l-213 -66l135 -178l-76 -55l-129 182l-127 -182l-76 53l133 178z" />
<glyph unicode="+" horiz-adv-x="940" d="M82 545v108h334v334h108v-334h334v-108h-334v-334h-108v334h-334z" />
<glyph unicode="," horiz-adv-x="489" d="M14 -254q74 77 116 186.5t42 231.5h143q0 -124 -60 -244t-142 -174h-99z" />
<glyph unicode="-" horiz-adv-x="727" d="M143 475v111h441v-111h-441z" />
<glyph unicode="." horiz-adv-x="489" d="M143 84q0 41 30 70.5t71 29.5t71.5 -29.5t30.5 -70.5t-30.5 -71.5t-71.5 -30.5t-71 30.5t-30 71.5z" />
<glyph unicode="/" horiz-adv-x="823" d="M20 -283l644 1676h118l-643 -1676h-119z" />
<glyph unicode="0" horiz-adv-x="1110" d="M102 608q0 278 123.5 453.5t329.5 175.5t329.5 -175.5t123.5 -453.5t-123.5 -453t-329.5 -175t-329.5 175t-123.5 453zM229 608q0 -230 89.5 -375t236.5 -145t236.5 145t89.5 375t-89.5 375t-236.5 145t-236.5 -145t-89.5 -375z" />
<glyph unicode="1" horiz-adv-x="624" d="M33 1057v110l379 68v-1235h-125v1096z" />
<glyph unicode="2" horiz-adv-x="860" d="M10 0v94q82 69 134 114t124 111.5t117.5 115.5t96 112t79 116t47.5 112.5t19 115.5q0 114 -61.5 172.5t-164.5 58.5q-107 0 -189 -44.5t-157 -119.5v138q60 62 150 101.5t196 39.5q158 0 254.5 -87t96.5 -259q0 -97 -50 -205t-136.5 -210t-184.5 -192t-211 -173h612v-111 h-772z" />
<glyph unicode="3" horiz-adv-x="811" d="M41 66v116q71 -49 139 -73.5t156 -24.5q125 0 200.5 61.5t75.5 165.5q0 114 -77 172.5t-263 89.5v86q157 34 233.5 102t76.5 175q0 88 -59 139t-150 51q-167 0 -318 -163v133q46 58 133.5 99.5t184.5 41.5q164 0 252 -86t88 -215q0 -114 -79.5 -206t-199.5 -109 q131 -16 218 -99t87 -211q0 -142 -106.5 -236.5t-296.5 -94.5q-84 0 -167.5 24t-127.5 62z" />
<glyph unicode="4" horiz-adv-x="1038" d="M53 338v104l576 775h147v-775h232v-104h-232v-338h-121v338h-602zM184 442h471v641z" />
<glyph unicode="5" horiz-adv-x="821" d="M41 57v119q139 -92 272 -92q144 0 221.5 69t77.5 185q0 65 -24.5 115t-66 83.5t-105.5 58t-132 38.5t-157 24l39 560h543v-111h-441l-24 -356q110 -14 196 -41.5t155.5 -75t106.5 -122t37 -173.5q0 -71 -26 -134.5t-76.5 -114t-133.5 -80t-188 -29.5q-159 0 -274 77z" />
<glyph unicode="6" horiz-adv-x="980" d="M86 377q0 188 143 409l279 431h133l-268 -408l-105 -147q91 110 252 110q77 0 146.5 -26t123 -75t85.5 -125t32 -169q0 -167 -112 -282t-303 -115q-188 0 -297 115t-109 282zM211 375q0 -132 81 -212.5t202 -80.5q126 0 207 80t81 213q0 131 -80 211t-206 80 q-123 0 -204 -80.5t-81 -210.5z" />
<glyph unicode="7" horiz-adv-x="825" d="M20 1106v111h750v-111l-530 -1106h-129l530 1106h-621z" />
<glyph unicode="8" horiz-adv-x="974" d="M82 332q0 123 81 208.5t185 106.5q-83 25 -139.5 98t-56.5 175q0 149 96.5 233t238.5 84t239 -84t97 -233q0 -102 -56.5 -175t-139.5 -98q104 -21 185 -106.5t81 -208.5q0 -164 -115.5 -258t-290.5 -94t-290 94t-115 258zM211 332q0 -121 78 -185.5t198 -64.5t198.5 64.5 t78.5 185.5q0 120 -79.5 191t-197.5 71t-197 -71t-79 -191zM272 922q0 -97 62 -155t153 -58t153 58t62 155q0 98 -62 157.5t-153 59.5t-153 -59.5t-62 -157.5z" />
<glyph unicode="9" horiz-adv-x="980" d="M74 840q0 167 112 282t303 115q188 0 297 -115t109 -282q0 -189 -143 -410l-279 -430h-133l268 408l105 147q-92 -111 -252 -111q-104 0 -190.5 44.5t-141.5 136.5t-55 215zM199 842q0 -131 80 -211t206 -80q123 0 204 80.5t81 210.5q0 132 -81 212.5t-202 80.5 q-126 0 -207 -80t-81 -213z" />
<glyph unicode=":" horiz-adv-x="489" d="M143 84q0 41 30 70.5t71 29.5t71.5 -29.5t30.5 -70.5t-30.5 -71.5t-71.5 -30.5t-71 30.5t-30 71.5zM143 770q0 41 30 70.5t71 29.5t71.5 -29.5t30.5 -70.5t-30.5 -71.5t-71.5 -30.5t-71 30.5t-30 71.5z" />
<glyph unicode=";" horiz-adv-x="489" d="M14 -254q74 77 116 186.5t42 231.5h143q0 -124 -60 -244t-142 -174h-99zM145 770q0 41 30 70.5t71 29.5t71.5 -29.5t30.5 -70.5t-30.5 -71.5t-71.5 -30.5t-71 30.5t-30 71.5z" />
<glyph unicode="&#x3c;" horiz-adv-x="673" d="M41 588v16l551 336v-135l-354 -209l354 -209v-135z" />
<glyph unicode="=" horiz-adv-x="960" d="M92 422v108h776v-108h-776zM92 668v108h776v-108h-776z" />
<glyph unicode="&#x3e;" horiz-adv-x="673" d="M82 252v135l354 209l-354 209v135l551 -336v-16z" />
<glyph unicode="?" horiz-adv-x="778" d="M51 973v131q47 59 128 96t181 37q171 0 268 -98t97 -242q0 -52 -13 -98t-32 -79.5t-50 -63.5t-59 -49.5t-67.5 -38.5t-65.5 -29t-63 -23v-170h-123v227q67 23 114 42.5t94.5 48t76.5 60.5t47 76t18 97q0 101 -71 164t-171 63q-95 0 -167 -37.5t-142 -113.5zM215 84 q0 41 29.5 70.5t70.5 29.5q42 0 72.5 -29.5t30.5 -70.5t-31 -71.5t-72 -30.5t-70.5 30.5t-29.5 71.5z" />
<glyph unicode="@" horiz-adv-x="1583" d="M92 446q0 208 90.5 373.5t261 262t392.5 96.5q296 0 470.5 -165t174.5 -435q0 -170 -79.5 -293t-215 -183.5t-312.5 -60.5q-199 0 -318.5 106.5t-119.5 290.5q0 183 117 292.5t309 109.5q60 0 130.5 -13.5t119.5 -35.5v-619q252 95 252 406q0 229 -143.5 365t-384.5 136 q-284 0 -457.5 -177.5t-173.5 -455.5q0 -136 42 -246.5t111 -183t161 -121.5t188.5 -70.5t197.5 -21.5q214 0 404 74v-102q-163 -70 -404 -70q-117 0 -229 24.5t-219 81t-187 139.5t-129 211t-49 285zM551 438q0 -138 87.5 -219.5t233.5 -81.5q78 0 134 13v565 q-53 20 -144 20q-141 0 -226 -80.5t-85 -216.5z" />
<glyph unicode="A" horiz-adv-x="1150" d="M20 0l472 1217h161l477 -1217h-135l-127 336h-589l-127 -336h-132zM317 442h510l-256 672z" />
<glyph unicode="B" horiz-adv-x="991" d="M174 2v1217q148 18 246 18q440 0 440 -330q0 -118 -69 -194t-187 -90q143 -9 224 -86t81 -209q0 -159 -118.5 -253.5t-370.5 -94.5q-120 0 -246 22zM299 92q65 -8 121 -8q364 0 364 244q0 118 -94.5 175.5t-263.5 57.5h-127v-469zM299 670h109q156 0 241.5 60t85.5 177 q0 112 -82 169t-235 57q-44 0 -119 -7v-456z" />
<glyph unicode="C" horiz-adv-x="1144" d="M92 608q0 138 49 256t134 199.5t200.5 127.5t245.5 46q183 0 336 -92v-148q-131 125 -338 125q-137 0 -250 -62.5t-180.5 -181t-67.5 -270.5t67.5 -270.5t180.5 -181t250 -62.5q214 0 344 121v-145q-152 -90 -342 -90q-183 0 -326 78.5t-223 222t-80 327.5z" />
<glyph unicode="D" horiz-adv-x="1261" d="M174 -2v1223q144 16 250 16q136 0 248.5 -22.5t192.5 -64t140 -96.5t95 -123.5t52 -141t17 -152.5q0 -106 -24.5 -200t-80 -178.5t-138.5 -146t-207.5 -97t-278.5 -35.5q-111 0 -266 18zM301 98q65 -8 141 -8q132 0 240 33.5t187.5 99.5t123 171t43.5 241 q0 226 -151.5 356.5t-464.5 130.5q-54 0 -119 -6v-1018z" />
<glyph unicode="E" horiz-adv-x="976" d="M174 0v1217h692v-111h-565v-430h528v-111h-528v-454h573v-111h-700z" />
<glyph unicode="F" horiz-adv-x="868" d="M174 0v1217h623v-111h-496v-440h451v-113h-451v-553h-127z" />
<glyph unicode="G" horiz-adv-x="1214" d="M92 608q0 182 84.5 327t228 223.5t316.5 78.5q181 0 334 -92v-146q-132 123 -336 123q-136 0 -249 -62.5t-181 -181.5t-68 -270t68 -270.5t181 -182.5t249 -63q85 0 138.5 10t111.5 35v412h127v-479q-152 -90 -375 -90q-276 0 -452.5 175.5t-176.5 452.5z" />
<glyph unicode="H" horiz-adv-x="1351" d="M174 0v1217h127v-541h750v541h127v-1217h-127v563h-750v-563h-127z" />
<glyph unicode="I" horiz-adv-x="475" d="M174 0v1217h127v-1217h-127z" />
<glyph unicode="J" horiz-adv-x="745" d="M31 84v143q54 -66 124.5 -102.5t143.5 -36.5q96 0 136 52t40 165v912h127v-930q0 -150 -79.5 -228.5t-223.5 -78.5q-167 0 -268 104z" />
<glyph unicode="K" horiz-adv-x="1060" d="M174 0v1217h127v-1217h-127zM309 598l549 619h158l-549 -607l588 -610h-164z" />
<glyph unicode="L" horiz-adv-x="866" d="M174 0v1217h127v-1106h524v-111h-651z" />
<glyph unicode="M" horiz-adv-x="1568" d="M66 0l217 1217h170l331 -1088l332 1088h170l217 -1217h-127l-186 1096l-334 -1096h-147l-334 1096l-187 -1096h-122z" />
<glyph unicode="N" horiz-adv-x="1323" d="M174 0v1217h131l721 -1033v1033h123v-1217h-127l-725 1030v-1030h-123z" />
<glyph unicode="O" d="M92 608q0 182 84 327t227.5 223.5t317.5 78.5t317.5 -78.5t227.5 -223.5t84 -327t-84 -326.5t-227.5 -223t-317.5 -78.5t-317.5 78.5t-227.5 223t-84 326.5zM221 608q0 -152 68 -270.5t181.5 -181t250.5 -62.5t250.5 62.5t181.5 181t68 270.5t-68 270.5t-181.5 181 t-250.5 62.5t-250.5 -62.5t-181.5 -181t-68 -270.5z" />
<glyph unicode="P" horiz-adv-x="917" d="M174 0v1219q124 18 215 18q243 0 360 -102.5t117 -282.5q0 -193 -128 -297t-359 -104q-24 0 -78 4v-455h-127zM301 561q23 -2 66 -2q188 0 279 72.5t91 220.5q0 128 -84 202t-270 74q-24 0 -82 -4v-563z" />
<glyph unicode="Q" d="M92 608q0 182 84 327t227.5 223.5t317.5 78.5t317.5 -78.5t227.5 -223.5t84 -327q0 -238 -139 -405t-357 -211l272 -275h-168l-256 263q-127 4 -239.5 51.5t-194 128.5t-129 197t-47.5 251zM221 608q0 -152 68 -270.5t181.5 -181t250.5 -62.5t250.5 62.5t181.5 181 t68 270.5t-68 270.5t-181.5 181t-250.5 62.5t-250.5 -62.5t-181.5 -181t-68 -270.5z" />
<glyph unicode="R" horiz-adv-x="1017" d="M174 0v1219q124 18 232 18q238 0 355.5 -100.5t117.5 -276.5q0 -134 -71 -229t-194 -131l404 -500h-158l-377 471h-182v-471h-127zM301 575h127q153 0 236.5 71.5t83.5 209.5q0 124 -84 197t-261 73q-44 0 -102 -4v-547z" />
<glyph unicode="S" horiz-adv-x="878" d="M78 924q0 147 104 230t250 83q171 0 291 -96v-131q-77 61 -144 89.5t-147 28.5q-103 0 -167 -56.5t-64 -149.5q0 -86 55 -137.5t190 -98.5q90 -31 149.5 -62t106 -74.5t68 -101.5t21.5 -137q0 -160 -111.5 -245.5t-284.5 -85.5q-187 0 -309 94v139q80 -63 151 -94 t158 -31q118 0 194.5 55t76.5 168q0 52 -18 92.5t-56 70t-78 49t-102 42.5q-90 33 -145.5 61.5t-101.5 69.5t-66.5 96.5t-20.5 131.5z" />
<glyph unicode="T" horiz-adv-x="991" d="M31 1106v111h930v-111h-402v-1106h-127v1106h-401z" />
<glyph unicode="U" horiz-adv-x="1226" d="M143 397v820h127v-809q0 -94 27.5 -158.5t80.5 -97.5t116.5 -46.5t150.5 -13.5q143 0 281 23v1102h127v-1190q-196 -47 -408 -47q-86 0 -157 11t-136.5 40t-110.5 75.5t-71.5 120t-26.5 170.5z" />
<glyph unicode="V" horiz-adv-x="1130" d="M20 1217h138l409 -1090l410 1090h133l-469 -1217h-152z" />
<glyph unicode="W" horiz-adv-x="1560" d="M20 1217h132l284 -1100l273 1100h149l270 -1100l287 1100h125l-330 -1217h-168l-262 1071l-262 -1071h-168z" />
<glyph unicode="X" horiz-adv-x="1069" d="M20 0l441 633l-410 584h150l340 -494l333 494h142l-404 -586l437 -631h-148l-366 535l-371 -535h-144z" />
<glyph unicode="Y" horiz-adv-x="1052" d="M20 1217h140l366 -617l367 617h139l-442 -732v-485h-127v485z" />
<glyph unicode="Z" horiz-adv-x="980" d="M51 0v111l709 995h-670v111h817v-109l-719 -997h742v-111h-879z" />
<glyph unicode="[" horiz-adv-x="622" d="M174 -283v1676h346v-97h-239v-1482h239v-97h-346z" />
<glyph unicode="\" horiz-adv-x="823" d="M41 1393h119l643 -1676h-119z" />
<glyph unicode="]" horiz-adv-x="622" d="M102 -186h240v1482h-240v97h347v-1676h-347v97z" />
<glyph unicode="^" horiz-adv-x="851" d="M41 692l319 525h132l319 -525h-131l-254 420l-254 -420h-131z" />
<glyph unicode="_" horiz-adv-x="946" d="M102 -178h742v-98h-742v98z" />
<glyph unicode="`" horiz-adv-x="1024" d="M365 1362h120l174 -311h-120z" />
<glyph unicode="a" horiz-adv-x="878" d="M82 248q0 131 114 199.5t320 68.5h100v109q0 85 -50 129.5t-138 44.5q-125 0 -262 -72v117q128 69 276 69q297 0 297 -280v-617q-114 -32 -254 -32q-190 0 -296.5 64t-106.5 200zM205 248q0 -85 77.5 -123.5t209.5 -38.5q60 0 124 12v318h-92q-146 0 -232.5 -41.5 t-86.5 -126.5z" />
<glyph unicode="b" horiz-adv-x="1044" d="M154 25v1368h122v-525q31 18 91 31.5t122 13.5q209 0 339 -119.5t130 -342.5q0 -216 -140.5 -343.5t-373.5 -127.5q-147 0 -290 45zM276 109q76 -21 168 -21q180 0 285 97t105 266q0 165 -99 258.5t-246 93.5q-129 0 -213 -41v-653z" />
<glyph unicode="c" horiz-adv-x="901" d="M86 446q0 109 38 198.5t102.5 147.5t147.5 89.5t175 31.5q137 0 256 -67v-129q-120 84 -250 84q-70 0 -131.5 -23.5t-109 -67.5t-75.5 -112.5t-28 -153.5q0 -164 100 -258t252 -94q126 0 256 84v-129q-131 -67 -268 -67q-195 0 -330 127t-135 339z" />
<glyph unicode="d" horiz-adv-x="1048" d="M86 446q0 146 68 253.5t178.5 160.5t245.5 53q126 0 194 -41v521h123v-1381q-134 -32 -291 -32q-236 0 -377 122.5t-141 343.5zM211 446q0 -168 107 -263t286 -95q102 0 168 10v664q-74 41 -194 41q-160 0 -263.5 -95t-103.5 -262z" />
<glyph unicode="e" horiz-adv-x="966" d="M86 446q0 200 121.5 333.5t302.5 133.5q172 0 273.5 -101t101.5 -288v-84h-676v-4q0 -158 97.5 -253t234.5 -95q93 0 164.5 24t140.5 76v-122q-117 -86 -305 -86q-198 0 -326.5 126t-128.5 340zM217 543h545q-6 135 -73.5 198.5t-184.5 63.5q-106 0 -183.5 -69 t-103.5 -193z" />
<glyph unicode="f" horiz-adv-x="550" d="M41 788v105h137v223q0 141 71.5 219t203.5 78q97 0 159 -45v-117q-75 54 -157 54q-75 0 -114.5 -43.5t-39.5 -147.5v-221h246v-105h-246v-788h-123v788h-137z" />
<glyph unicode="g" horiz-adv-x="1044" d="M86 451q0 215 139 338.5t375 123.5q69 0 151.5 -16t139.5 -41v-866q0 -79 -23 -143.5t-62 -107.5t-92 -72.5t-111.5 -42.5t-121.5 -13q-159 0 -276 55v117q143 -68 276 -68q58 0 107.5 15.5t91 48.5t65 92.5t23.5 140.5v19q-24 -15 -77.5 -27t-106.5 -12 q-227 0 -362.5 118t-135.5 341zM209 451q0 -161 101 -256t274 -95q91 0 184 35v639q-83 27 -168 27q-185 0 -288 -92.5t-103 -257.5z" />
<glyph unicode="h" horiz-adv-x="1034" d="M154 0v1393h122v-527q128 47 263 47q352 0 352 -311v-602h-123v578q0 221 -250 221q-117 0 -242 -41v-758h-122z" />
<glyph unicode="i" horiz-adv-x="430" d="M123 1171q0 38 27.5 65.5t64.5 27.5q38 0 65 -27.5t27 -65.5q0 -37 -27 -64.5t-65 -27.5q-37 0 -64.5 27.5t-27.5 64.5zM154 0v893h122v-893h-122z" />
<glyph unicode="j" horiz-adv-x="430" d="M-127 -248q54 -35 135 -35q71 0 108.5 41.5t37.5 139.5v995h122v-1004q0 -278 -268 -278q-72 0 -135 29v112zM123 1171q0 38 27.5 65.5t64.5 27.5q38 0 65 -27.5t27 -65.5q0 -37 -27 -64.5t-65 -27.5q-37 0 -64.5 27.5t-27.5 64.5z" />
<glyph unicode="k" horiz-adv-x="935" d="M154 0v1393h122v-1393h-122zM283 483l452 410h172l-463 -406l471 -487h-163z" />
<glyph unicode="l" horiz-adv-x="430" d="M154 0v1393h122v-1393h-122z" />
<glyph unicode="m" horiz-adv-x="1556" d="M154 0v836q192 77 358 77q159 0 240 -69q178 69 329 69q166 0 249 -74t83 -237v-602h-123v598q0 59 -18.5 101.5t-50.5 64t-66 30.5t-74 9q-74 0 -146 -15t-116 -36q27 -66 27 -148v-604h-123v598q0 59 -18 101.5t-50 64t-66.5 30.5t-76.5 9q-123 0 -236 -41v-762h-122z " />
<glyph unicode="n" horiz-adv-x="1034" d="M154 0v846q185 67 374 67q363 0 363 -311v-602h-123v578q0 221 -250 221q-112 0 -242 -33v-766h-122z" />
<glyph unicode="o" horiz-adv-x="1069" d="M86 446q0 207 125 337t324 130t323.5 -130t124.5 -337t-124.5 -336.5t-323.5 -129.5t-324 129.5t-125 336.5zM211 446q0 -161 91 -260.5t233 -99.5t232.5 99.5t90.5 260.5q0 162 -90.5 261.5t-232.5 99.5t-233 -100t-91 -261z" />
<glyph unicode="p" horiz-adv-x="1044" d="M154 -369v1225q151 57 311 57q233 0 363 -120t130 -347q0 -217 -131.5 -341.5t-353.5 -124.5q-123 0 -197 36v-385h-122zM276 123q84 -37 197 -37q165 0 263 96t98 264q0 166 -97 260.5t-272 94.5q-116 0 -189 -25v-653z" />
<glyph unicode="q" horiz-adv-x="1048" d="M86 446q0 216 141 341.5t377 125.5q69 0 151.5 -16t139.5 -41v-1225h-123v387q-24 -15 -77.5 -26.5t-106.5 -11.5q-226 0 -364 121.5t-138 344.5zM209 446q0 -162 103 -260t276 -98q91 0 184 35v651q-83 27 -168 27q-185 0 -290 -95t-105 -260z" />
<glyph unicode="r" horiz-adv-x="675" d="M154 0v811q153 96 331 96q73 0 150 -18v-121q-68 23 -158 23q-121 0 -201 -46v-745h-122z" />
<glyph unicode="s" horiz-adv-x="749" d="M92 672q0 115 77.5 178t203.5 63q147 0 243 -67v-133q-58 47 -114.5 71.5t-128.5 24.5q-74 0 -118 -37t-44 -100q0 -61 41.5 -98.5t144.5 -69.5q64 -19 107.5 -39.5t80 -51t54.5 -74.5t18 -103q0 -126 -85.5 -191t-219.5 -65q-75 0 -143 19.5t-109 51.5v139 q118 -106 252 -106q185 0 185 143q0 39 -13 66t-46 48.5t-65 34.5t-96 34q-121 41 -173 99t-52 163z" />
<glyph unicode="t" horiz-adv-x="647" d="M31 788v105h137v217h123v-217h252v-105h-252v-544q0 -84 32 -122t97 -38q70 0 166 49v-108q-88 -45 -193 -45q-104 0 -164.5 60t-60.5 191v557h-137z" />
<glyph unicode="u" horiz-adv-x="1003" d="M133 291v602h123v-596q0 -211 274 -211q98 0 197 12v795h123v-883q-163 -30 -311 -30q-200 0 -303 74t-103 237z" />
<glyph unicode="v" horiz-adv-x="856" d="M10 893h129l291 -778l291 778h125l-350 -893h-136z" />
<glyph unicode="w" horiz-adv-x="1290" d="M10 893h129l223 -780l222 780h127l223 -780l223 780h123l-270 -893h-150l-215 760l-215 -760h-149z" />
<glyph unicode="x" horiz-adv-x="839" d="M20 0l332 459l-313 434h137l248 -344l242 344h137l-316 -432l332 -461h-137l-264 373l-266 -373h-132z" />
<glyph unicode="y" horiz-adv-x="876" d="M10 893h135l299 -813l295 813h127l-483 -1262h-121l121 310z" />
<glyph unicode="z" horiz-adv-x="835" d="M72 0v106l534 682h-508v105h654v-107l-543 -682h559v-104h-696z" />
<glyph unicode="{" horiz-adv-x="686" d="M53 508v94h62q73 0 120.5 46.5t47.5 148.5v311q0 285 270 285h43v-97h-49q-156 0 -156 -188v-315q0 -109 -53.5 -168t-122.5 -70q69 -11 122.5 -70t53.5 -168v-315q0 -188 156 -188h49v-97h-43q-270 0 -270 285v311q0 102 -47.5 148.5t-120.5 46.5h-62z" />
<glyph unicode="|" horiz-adv-x="526" d="M209 -283v1676h108v-1676h-108z" />
<glyph unicode="}" horiz-adv-x="686" d="M90 -186h49q156 0 156 188v315q0 109 53.5 168t122.5 70q-69 11 -122.5 70t-53.5 168v315q0 188 -156 188h-49v97h43q270 0 270 -285v-311q0 -102 47.5 -148.5t120.5 -46.5h62v-94h-62q-73 0 -120.5 -46.5t-47.5 -148.5v-311q0 -285 -270 -285h-43v97z" />
<glyph unicode="~" horiz-adv-x="940" d="M143 416q0 113 50 174t137 61q39 0 81 -21.5t71.5 -47t63.5 -47t60 -21.5q36 0 58 35t22 98h111q0 -113 -50 -174t-137 -61q-39 0 -81 21.5t-71.5 47t-63.5 47t-60 21.5q-36 0 -58 -35t-22 -98h-111z" />
<glyph unicode="&#xa1;" horiz-adv-x="550" d="M174 811q0 41 29.5 71.5t70.5 30.5t72 -30.5t31 -71.5t-30.5 -70.5t-72.5 -29.5q-41 0 -70.5 29.5t-29.5 70.5zM215 -324v873h121v-873h-121z" />
<glyph unicode="&#xa2;" horiz-adv-x="901" d="M86 446q0 191 109.5 313t275.5 148v174h102v-168q121 -6 232 -67v-129q-111 78 -232 84v-709q118 3 246 84v-129q-123 -61 -246 -67v-175h-102v181q-168 26 -276.5 148.5t-108.5 311.5zM211 444q0 -136 71.5 -225.5t188.5 -116.5v691q-115 -26 -187.5 -116.5 t-72.5 -232.5z" />
<glyph unicode="&#xa3;" horiz-adv-x="927" d="M86 0v111q87 58 126.5 142t39.5 222v55h-166v107h166v209q0 188 92.5 289.5t251.5 101.5q75 0 143 -26t105 -64v-146q-104 121 -248 121q-223 0 -223 -276v-209h299v-107h-299v-57q0 -97 -18.5 -168t-45.5 -111.5t-71 -82.5h626v-111h-778z" />
<glyph unicode="&#xa4;" horiz-adv-x="1191" d="M123 229l147 150q-77 104 -77 246t79 247l-149 148l80 78l147 -148q108 78 246 78t246 -78l147 146l78 -78l-147 -148q79 -106 79 -245q0 -138 -79 -248l149 -146l-80 -77l-147 145q-108 -78 -246 -78q-137 0 -248 78l-147 -147zM303 625q0 -133 84 -221.5t209 -88.5 t209 88.5t84 221.5t-84 221t-209 88t-209 -88t-84 -221z" />
<glyph unicode="&#xa5;" horiz-adv-x="1011" d="M41 1217h139l328 -590l328 590h135l-375 -637h270v-101h-303v-127h303v-100h-303v-252h-114v252h-304v100h304v127h-304v101h271z" />
<glyph unicode="&#xa6;" horiz-adv-x="526" d="M209 -283v699h108v-699h-108zM209 694v699h108v-699h-108z" />
<glyph unicode="&#xa7;" horiz-adv-x="880" d="M72 502q0 98 59 168t156 110q-67 39 -99 90t-32 125q0 112 78 177t202 65q145 0 244 -72v-129q-119 97 -244 97q-74 0 -118 -37.5t-44 -100.5q0 -61 45.5 -99.5t169.5 -84.5q69 -25 111 -44t86.5 -46.5t68 -57t39 -71.5t15.5 -96q0 -100 -60 -170.5t-157 -110.5 q61 -38 89 -88.5t28 -124.5q0 -112 -78.5 -177t-202.5 -65q-150 0 -252 74v129q120 -98 252 -98q74 0 118 37t44 100t-39.5 101t-159.5 83q-68 25 -110.5 44t-86.5 46.5t-68 57.5t-39 72t-15 96zM186 502q0 -77 57.5 -120.5t215.5 -105.5l22 -8q97 30 155 89.5t58 138.5 q0 75 -60.5 122.5t-213.5 102.5l-21 6q-98 -31 -155.5 -88.5t-57.5 -136.5z" />
<glyph unicode="&#xa8;" horiz-adv-x="1024" d="M258 1171q0 38 27.5 65.5t64.5 27.5q38 0 65 -27.5t27 -65.5q0 -37 -27 -64.5t-65 -27.5q-37 0 -64.5 27.5t-27.5 64.5zM582 1171q0 38 27.5 65.5t64.5 27.5q38 0 65 -27.5t27 -65.5q0 -37 -27 -64.5t-65 -27.5q-37 0 -64.5 27.5t-27.5 64.5z" />
<glyph unicode="&#xa9;" horiz-adv-x="1429" d="M92 608q0 175 80 319t223 227t320 83q133 0 249 -49t197.5 -132.5t128.5 -200t47 -247.5q0 -175 -79.5 -318.5t-222.5 -226.5t-320 -83t-320 83t-223 226.5t-80 318.5zM174 608q0 -242 153 -397.5t388 -155.5t387.5 155.5t152.5 397.5t-152.5 397.5t-387.5 155.5 t-388 -155.5t-153 -397.5zM367 604q0 169 106.5 276t271.5 107q120 0 205 -53v-131q-79 76 -205 76q-116 0 -187 -77t-71 -198t73.5 -197.5t189.5 -76.5q123 0 208 76v-130q-90 -53 -213 -53q-168 0 -273 107t-105 274z" />
<glyph unicode="&#xaa;" horiz-adv-x="667" d="M51 713q0 104 91.5 162.5t254.5 58.5h80v63q0 67 -40 102.5t-109 35.5q-106 0 -207 -56v103q95 55 217 55q115 0 182.5 -56t67.5 -177v-478q-95 -24 -215 -24q-152 0 -237 51.5t-85 159.5zM166 715q0 -123 207 -123q60 0 104 8v244h-80q-106 0 -168.5 -32t-62.5 -97z" />
<glyph unicode="&#xab;" horiz-adv-x="917" d="M123 440l252 324h137l-250 -324l250 -323h-137zM406 440l251 324h138l-250 -324l250 -323h-138z" />
<glyph unicode="&#xad;" horiz-adv-x="727" d="M143 475v111h441v-111h-441z" />
<glyph unicode="&#xae;" horiz-adv-x="931" d="M82 848q0 165 109 277t274 112q166 0 275.5 -112t109.5 -277q0 -164 -109.5 -275.5t-275.5 -111.5q-165 0 -274 111.5t-109 275.5zM162 848q0 -133 85.5 -224.5t217.5 -91.5q133 0 219 91.5t86 224.5q0 135 -86 226t-219 91q-132 0 -217.5 -91t-85.5 -226zM332 666v372 q67 13 119 13q72 0 116.5 -35t44.5 -101q0 -37 -18.5 -66.5t-48.5 -43.5l100 -139h-104l-82 118h-37v-118h-90zM422 862h29q67 0 67 53q0 27 -18 40.5t-47 13.5q-23 0 -31 -2v-105z" />
<glyph unicode="&#xaf;" horiz-adv-x="1024" d="M293 1100v102h436v-102h-436z" />
<glyph unicode="&#xb0;" horiz-adv-x="585" d="M51 997q0 100 69.5 168t172.5 68t172.5 -68t69.5 -168t-69.5 -167.5t-172.5 -67.5t-172.5 67.5t-69.5 167.5zM150 997q0 -65 38.5 -106t104.5 -41t104.5 41t38.5 106t-38.5 106.5t-104.5 41.5t-104.5 -41.5t-38.5 -106.5z" />
<glyph unicode="&#xb1;" horiz-adv-x="940" d="M82 197v108h776v-108h-776zM82 647v109h334v252h108v-252h334v-109h-334v-252h-108v252h-334z" />
<glyph unicode="&#xb2;" horiz-adv-x="516" d="M20 539v84q63 53 97.5 83.5t82.5 77.5t72.5 81t43 74.5t18.5 76.5q0 54 -30 81t-81 27q-90 0 -182 -84v111q76 76 203 76q92 0 149.5 -50.5t57.5 -146.5q0 -98 -79.5 -198.5t-205.5 -192.5h303v-100h-449z" />
<glyph unicode="&#xb3;" horiz-adv-x="485" d="M33 575v105q80 -59 168 -59q58 0 92.5 26.5t34.5 73.5q0 55 -38.5 80.5t-129.5 34.5v86q153 18 153 122q0 40 -27 62t-69 22q-89 0 -174 -81v108q75 72 186 72q93 0 146 -47.5t53 -124.5q0 -64 -38 -110.5t-99 -61.5q68 -14 108.5 -57.5t40.5 -110.5q0 -86 -65 -137.5 t-168 -51.5q-108 0 -174 49z" />
<glyph unicode="&#xb4;" horiz-adv-x="1024" d="M365 1051l174 311h120l-174 -311h-120z" />
<glyph unicode="&#xb5;" horiz-adv-x="1003" d="M133 -369v1262h123v-596q0 -211 274 -211q98 0 197 12v795h123v-883q-163 -30 -311 -30q-95 0 -167 16.5t-118 64.5v-430h-121z" />
<glyph unicode="&#xb6;" horiz-adv-x="1015" d="M61 881q0 73 23.5 131t63 95.5t93.5 63t112 36t122 10.5h121v-1434h-121v762q-64 0 -122 10.5t-112 36t-93.5 63t-63 95.5t-23.5 131zM741 -217v1434h121v-1434h-121z" />
<glyph unicode="&#xb7;" horiz-adv-x="489" d="M143 530q0 41 30 71t71 30t71.5 -30t30.5 -71t-30.5 -71.5t-71.5 -30.5t-71 30.5t-30 71.5z" />
<glyph unicode="&#xb8;" horiz-adv-x="1024" d="M330 -299q75 69 117 156t42 176h111q0 -99 -41 -193.5t-104 -138.5h-125z" />
<glyph unicode="&#xb9;" horiz-adv-x="380" d="M31 1083v103l245 41v-688h-112v563z" />
<glyph unicode="&#xba;" horiz-adv-x="829" d="M57 868q0 164 100 266.5t257 102.5q159 0 258.5 -102.5t99.5 -266.5q0 -163 -100 -264.5t-258 -101.5q-157 0 -257 102t-100 264zM172 868q0 -120 68 -194t174 -74q107 0 174 73.5t67 194.5t-67.5 195t-173.5 74q-105 0 -173.5 -74.5t-68.5 -194.5z" />
<glyph unicode="&#xbb;" horiz-adv-x="917" d="M123 117l250 323l-250 324h137l252 -324l-252 -323h-137zM406 117l249 323l-249 324h137l252 -324l-252 -323h-137z" />
<glyph unicode="&#xbc;" horiz-adv-x="1372" d="M82 1083v103l246 41v-688h-113v563zM213 0l690 1217h119l-690 -1217h-119zM721 174v92l319 412h117v-414h113v-90h-113v-174h-108v174h-328zM831 264h218v287z" />
<glyph unicode="&#xbd;" horiz-adv-x="1394" d="M82 1083v103l246 41v-688h-113v563zM213 0l690 1217h119l-690 -1217h-119zM844 0v84q62 53 97 83.5t82.5 77.5t72 81t43 74.5t18.5 76.5q0 54 -29.5 81.5t-80.5 27.5q-91 0 -183 -84v110q76 76 203 76q92 0 149.5 -50t57.5 -146q0 -98 -79.5 -199t-205.5 -193h303v-100 h-448z" />
<glyph unicode="&#xbe;" horiz-adv-x="1462" d="M102 575v105q80 -59 168 -59q58 0 92.5 26.5t34.5 73.5q0 55 -38.5 80.5t-129.5 34.5v86q154 18 154 122q0 40 -27 62t-69 22q-89 0 -174 -81v108q75 72 186 72q93 0 146 -47.5t53 -124.5q0 -63 -38.5 -110t-99.5 -62q68 -14 109 -57.5t41 -110.5q0 -86 -65.5 -137.5 t-168.5 -51.5q-108 0 -174 49zM303 0l690 1217h119l-690 -1217h-119zM811 174v92l319 412h117v-414h113v-90h-113v-174h-108v174h-328zM922 264h217v287z" />
<glyph unicode="&#xbf;" horiz-adv-x="778" d="M68 -2q0 52 13 98t32 79.5t50 63.5t59 49.5t67.5 38.5t65.5 29t63 23v170h123v-227q-67 -23 -114 -42.5t-95 -48.5t-77 -60.5t-47 -75.5t-18 -97q0 -101 71 -164t171 -63q95 0 167 37.5t142 113.5v-131q-47 -59 -128 -96t-181 -37q-171 0 -267.5 98t-96.5 242zM375 811 q0 41 30.5 71.5t71.5 30.5t71 -30.5t30 -71.5t-30 -70.5t-71 -29.5t-71.5 29.5t-30.5 70.5z" />
<glyph unicode="&#xc0;" horiz-adv-x="1150" d="M20 0l472 1217h161l477 -1217h-135l-127 336h-589l-127 -336h-132zM317 442h510l-256 672zM354 1593h121l150 -268h-121z" />
<glyph unicode="&#xc1;" horiz-adv-x="1150" d="M20 0l472 1217h161l477 -1217h-135l-127 336h-589l-127 -336h-132zM317 442h510l-256 672zM526 1325l150 268h121l-150 -268h-121z" />
<glyph unicode="&#xc2;" horiz-adv-x="1150" d="M20 0l472 1217h161l477 -1217h-135l-127 336h-589l-127 -336h-132zM307 1313l234 272h69l234 -272h-127l-142 164l-141 -164h-127zM317 442h510l-256 672z" />
<glyph unicode="&#xc3;" horiz-adv-x="1150" d="M20 0l472 1217h161l477 -1217h-135l-127 336h-589l-127 -336h-132zM291 1313q0 116 40 177.5t115 61.5q34 0 73 -21.5t67.5 -48t61 -48t54.5 -21.5q64 0 64 135h96q0 -116 -40 -177.5t-115 -61.5q-34 0 -73 21.5t-67.5 48t-61 48t-54.5 21.5q-64 0 -64 -135h-96zM317 442 h510l-256 672z" />
<glyph unicode="&#xc4;" horiz-adv-x="1150" d="M20 0l472 1217h161l477 -1217h-135l-127 336h-589l-127 -336h-132zM317 442h510l-256 672zM322 1405q0 38 27.5 65t64.5 27q38 0 65 -27t27 -65q0 -37 -27 -64.5t-65 -27.5q-37 0 -64.5 27.5t-27.5 64.5zM645 1405q0 38 27.5 65t64.5 27q38 0 65 -27t27 -65 q0 -37 -27 -64.5t-65 -27.5q-37 0 -64.5 27.5t-27.5 64.5z" />
<glyph unicode="&#xc5;" horiz-adv-x="1150" d="M20 0l472 1217h161l477 -1217h-135l-127 336h-589l-127 -336h-132zM317 442h510l-256 672zM401 1466q0 72 49.5 120t124.5 48t125 -48t50 -120t-50 -120t-125 -48t-124.5 48t-49.5 120zM483 1466q0 -39 24 -64.5t68 -25.5t68.5 25.5t24.5 64.5t-24.5 64.5t-68.5 25.5 t-68 -25.5t-24 -64.5z" />
<glyph unicode="&#xc6;" horiz-adv-x="1679" d="M20 0l789 1217h760v-111h-565v-430h528v-111h-528v-454h573v-111h-700v336h-500l-215 -336h-142zM444 442h433v674z" />
<glyph unicode="&#xc7;" horiz-adv-x="1144" d="M92 608q0 138 49 256t134 199.5t200.5 127.5t245.5 46q183 0 336 -92v-148q-131 125 -338 125q-137 0 -250 -62.5t-180.5 -181t-67.5 -270.5t67.5 -270.5t180.5 -181t250 -62.5q214 0 344 121v-145q-133 -79 -301 -88q-9 -87 -47.5 -165t-93.5 -116h-125q133 124 155 281 q-250 23 -404.5 194.5t-154.5 431.5z" />
<glyph unicode="&#xc8;" horiz-adv-x="976" d="M174 0v1217h692v-111h-565v-430h528v-111h-528v-454h573v-111h-700zM340 1593h121l149 -268h-121z" />
<glyph unicode="&#xc9;" horiz-adv-x="976" d="M174 0v1217h692v-111h-565v-430h528v-111h-528v-454h573v-111h-700zM471 1325l150 268h120l-149 -268h-121z" />
<glyph unicode="&#xca;" horiz-adv-x="976" d="M174 0v1217h692v-111h-565v-430h528v-111h-528v-454h573v-111h-700zM272 1313l234 272h69l234 -272h-127l-141 164l-142 -164h-127z" />
<glyph unicode="&#xcb;" horiz-adv-x="976" d="M174 0v1217h692v-111h-565v-430h528v-111h-528v-454h573v-111h-700zM287 1405q0 38 27.5 65t64.5 27q38 0 65 -27t27 -65q0 -37 -27 -64.5t-65 -27.5q-37 0 -64.5 27.5t-27.5 64.5zM610 1405q0 38 27.5 65t64.5 27q38 0 65.5 -27t27.5 -65q0 -37 -27.5 -64.5t-65.5 -27.5 q-37 0 -64.5 27.5t-27.5 64.5z" />
<glyph unicode="&#xcc;" horiz-adv-x="475" d="M37 1593h121l149 -268h-121zM174 0v1217h127v-1217h-127z" />
<glyph unicode="&#xcd;" horiz-adv-x="475" d="M168 1325l149 268h121l-149 -268h-121zM174 0v1217h127v-1217h-127z" />
<glyph unicode="&#xce;" horiz-adv-x="475" d="M-31 1313l234 272h69l234 -272h-127l-141 164l-142 -164h-127zM174 0v1217h127v-1217h-127z" />
<glyph unicode="&#xcf;" horiz-adv-x="475" d="M-16 1405q0 38 27.5 65t64.5 27q38 0 65 -27t27 -65q0 -37 -27 -64.5t-65 -27.5q-37 0 -64.5 27.5t-27.5 64.5zM174 0v1217h127v-1217h-127zM307 1405q0 38 27.5 65t64.5 27q38 0 65.5 -27t27.5 -65q0 -37 -27.5 -64.5t-65.5 -27.5q-37 0 -64.5 27.5t-27.5 64.5z" />
<glyph unicode="&#xd0;" horiz-adv-x="1286" d="M82 563v113h117v545q144 16 250 16q136 0 248.5 -22.5t192.5 -64t140 -96.5t95 -123.5t52 -141t17 -152.5q0 -106 -24.5 -200t-80 -178.5t-138.5 -146t-207.5 -97t-278.5 -35.5q-111 0 -266 18v565h-117zM326 98q65 -8 141 -8q132 0 240 33.5t187.5 99.5t123 171 t43.5 241q0 226 -152 356.5t-465 130.5q-54 0 -118 -6v-440h276v-113h-276v-465z" />
<glyph unicode="&#xd1;" horiz-adv-x="1323" d="M174 0v1217h131l721 -1033v1033h123v-1217h-127l-725 1030v-1030h-123zM377 1313q0 116 40 177.5t115 61.5q34 0 73 -21.5t67.5 -48t61 -48t54.5 -21.5q64 0 64 135h96q0 -116 -40 -177.5t-115 -61.5q-34 0 -73 21.5t-67.5 48t-61 48t-54.5 21.5q-64 0 -64 -135h-96z" />
<glyph unicode="&#xd2;" d="M92 608q0 182 84 327t227.5 223.5t317.5 78.5t317.5 -78.5t227.5 -223.5t84 -327t-84 -326.5t-227.5 -223t-317.5 -78.5t-317.5 78.5t-227.5 223t-84 326.5zM221 608q0 -152 68 -270.5t181.5 -181t250.5 -62.5t250.5 62.5t181.5 181t68 270.5t-68 270.5t-181.5 181 t-250.5 62.5t-250.5 -62.5t-181.5 -181t-68 -270.5zM520 1593h121l150 -268h-121z" />
<glyph unicode="&#xd3;" d="M92 608q0 182 84 327t227.5 223.5t317.5 78.5t317.5 -78.5t227.5 -223.5t84 -327t-84 -326.5t-227.5 -223t-317.5 -78.5t-317.5 78.5t-227.5 223t-84 326.5zM221 608q0 -152 68 -270.5t181.5 -181t250.5 -62.5t250.5 62.5t181.5 181t68 270.5t-68 270.5t-181.5 181 t-250.5 62.5t-250.5 -62.5t-181.5 -181t-68 -270.5zM651 1325l150 268h121l-150 -268h-121z" />
<glyph unicode="&#xd4;" d="M92 608q0 182 84 327t227.5 223.5t317.5 78.5t317.5 -78.5t227.5 -223.5t84 -327t-84 -326.5t-227.5 -223t-317.5 -78.5t-317.5 78.5t-227.5 223t-84 326.5zM221 608q0 -152 68 -270.5t181.5 -181t250.5 -62.5t250.5 62.5t181.5 181t68 270.5t-68 270.5t-181.5 181 t-250.5 62.5t-250.5 -62.5t-181.5 -181t-68 -270.5zM453 1313l233 272h70l233 -272h-127l-141 164l-141 -164h-127z" />
<glyph unicode="&#xd5;" d="M92 608q0 182 84 327t227.5 223.5t317.5 78.5t317.5 -78.5t227.5 -223.5t84 -327t-84 -326.5t-227.5 -223t-317.5 -78.5t-317.5 78.5t-227.5 223t-84 326.5zM221 608q0 -152 68 -270.5t181.5 -181t250.5 -62.5t250.5 62.5t181.5 181t68 270.5t-68 270.5t-181.5 181 t-250.5 62.5t-250.5 -62.5t-181.5 -181t-68 -270.5zM436 1313q0 115 40.5 177t115.5 62q34 0 73 -21.5t67.5 -48t61 -48t54.5 -21.5q63 0 63 135h97q0 -115 -40.5 -177t-115.5 -62q-34 0 -73 21.5t-67.5 48t-61 48t-54.5 21.5q-64 0 -64 -135h-96z" />
<glyph unicode="&#xd6;" d="M92 608q0 182 84 327t227.5 223.5t317.5 78.5t317.5 -78.5t227.5 -223.5t84 -327t-84 -326.5t-227.5 -223t-317.5 -78.5t-317.5 78.5t-227.5 223t-84 326.5zM221 608q0 -152 68 -270.5t181.5 -181t250.5 -62.5t250.5 62.5t181.5 181t68 270.5t-68 270.5t-181.5 181 t-250.5 62.5t-250.5 -62.5t-181.5 -181t-68 -270.5zM467 1405q0 38 27.5 65t64.5 27q38 0 65 -27t27 -65q0 -37 -27 -64.5t-65 -27.5q-37 0 -64.5 27.5t-27.5 64.5zM791 1405q0 38 27.5 65t64.5 27q38 0 65 -27t27 -65q0 -37 -27 -64.5t-65 -27.5q-37 0 -64.5 27.5 t-27.5 64.5z" />
<glyph unicode="&#xd7;" horiz-adv-x="804" d="M82 348l244 244l-244 244l78 77l241 -245l244 245l78 -77l-244 -244l244 -244l-78 -76l-244 242l-241 -242z" />
<glyph unicode="&#xd8;" d="M70 0l176 184q-154 175 -154 424q0 182 84 327t227.5 223.5t317.5 78.5q231 0 401 -137l113 117h135l-176 -185q156 -177 156 -424q0 -182 -84 -326.5t-227.5 -223t-317.5 -78.5q-236 0 -406 137l-110 -117h-135zM221 608q0 -198 109 -336l710 742q-133 108 -319 108 q-137 0 -250.5 -62.5t-181.5 -181t-68 -270.5zM399 203q134 -109 322 -109q137 0 250.5 62.5t181.5 181t68 270.5q0 200 -111 336z" />
<glyph unicode="&#xd9;" horiz-adv-x="1226" d="M143 397v820h127v-809q0 -94 27.5 -158.5t80.5 -97.5t116.5 -46.5t150.5 -13.5q143 0 281 23v1102h127v-1190q-196 -47 -408 -47q-86 0 -157 11t-136.5 40t-110.5 75.5t-71.5 120t-26.5 170.5zM397 1593h121l150 -268h-121z" />
<glyph unicode="&#xda;" horiz-adv-x="1226" d="M143 397v820h127v-809q0 -94 27.5 -158.5t80.5 -97.5t116.5 -46.5t150.5 -13.5q143 0 281 23v1102h127v-1190q-196 -47 -408 -47q-86 0 -157 11t-136.5 40t-110.5 75.5t-71.5 120t-26.5 170.5zM528 1325l150 268h121l-150 -268h-121z" />
<glyph unicode="&#xdb;" horiz-adv-x="1226" d="M143 397v820h127v-809q0 -94 27.5 -158.5t80.5 -97.5t116.5 -46.5t150.5 -13.5q143 0 281 23v1102h127v-1190q-196 -47 -408 -47q-86 0 -157 11t-136.5 40t-110.5 75.5t-71.5 120t-26.5 170.5zM330 1313l233 272h70l233 -272h-127l-141 164l-141 -164h-127z" />
<glyph unicode="&#xdc;" horiz-adv-x="1226" d="M143 397v820h127v-809q0 -94 27.5 -158.5t80.5 -97.5t116.5 -46.5t150.5 -13.5q143 0 281 23v1102h127v-1190q-196 -47 -408 -47q-86 0 -157 11t-136.5 40t-110.5 75.5t-71.5 120t-26.5 170.5zM344 1405q0 38 27.5 65t64.5 27q38 0 65 -27t27 -65q0 -37 -27 -64.5 t-65 -27.5q-37 0 -64.5 27.5t-27.5 64.5zM668 1405q0 38 27.5 65t64.5 27q38 0 65 -27t27 -65q0 -37 -27 -64.5t-65 -27.5q-37 0 -64.5 27.5t-27.5 64.5z" />
<glyph unicode="&#xdd;" horiz-adv-x="1052" d="M20 1217h140l366 -617l367 617h139l-442 -732v-485h-127v485zM457 1325l149 268h121l-149 -268h-121z" />
<glyph unicode="&#xde;" horiz-adv-x="917" d="M174 0v1217h127v-207q58 4 88 4q238 0 357.5 -103t119.5 -282q0 -194 -128 -298t-359 -104q-24 0 -78 4v-231h-127zM301 338q23 -2 66 -2q188 0 279 72.5t91 220.5q0 126 -86 201t-262 75q-30 0 -88 -4v-563z" />
<glyph unicode="&#xdf;" horiz-adv-x="1056" d="M154 0v1042q0 158 92 264.5t250 106.5q147 0 237 -77t90 -210q0 -60 -29.5 -118t-64.5 -96t-64.5 -80.5t-29.5 -73.5q0 -33 26.5 -66t66.5 -59.5t87 -63t87 -74t66.5 -95t26.5 -124.5q0 -55 -19.5 -106t-57.5 -94.5t-102 -69.5t-144 -26q-148 0 -236 69v137 q60 -54 114 -79t122 -25q88 0 143 50t55 144q0 43 -20 82t-51.5 69t-70 58.5t-77 57.5t-70 59.5t-51.5 70.5t-20 85q0 36 20.5 73.5t49 70t57.5 66t49.5 75t20.5 83.5q0 80 -58 132.5t-153 52.5q-105 0 -162.5 -75.5t-57.5 -205.5v-1030h-122z" />
<glyph unicode="&#xe0;" horiz-adv-x="878" d="M82 248q0 131 114 199.5t320 68.5h100v109q0 85 -50 129.5t-138 44.5q-125 0 -262 -72v117q128 69 276 69q297 0 297 -280v-617q-114 -32 -254 -32q-190 0 -296.5 64t-106.5 200zM205 248q0 -85 77.5 -123.5t209.5 -38.5q60 0 124 12v318h-92q-146 0 -232.5 -41.5 t-86.5 -126.5zM217 1362h121l174 -311h-121z" />
<glyph unicode="&#xe1;" horiz-adv-x="878" d="M82 248q0 131 114 199.5t320 68.5h100v109q0 85 -50 129.5t-138 44.5q-125 0 -262 -72v117q128 69 276 69q297 0 297 -280v-617q-114 -32 -254 -32q-190 0 -296.5 64t-106.5 200zM205 248q0 -85 77.5 -123.5t209.5 -38.5q60 0 124 12v318h-92q-146 0 -232.5 -41.5 t-86.5 -126.5zM373 1051l174 311h121l-174 -311h-121z" />
<glyph unicode="&#xe2;" horiz-adv-x="878" d="M82 248q0 131 114 199.5t320 68.5h100v109q0 85 -50 129.5t-138 44.5q-125 0 -262 -72v117q128 69 276 69q297 0 297 -280v-617q-114 -32 -254 -32q-190 0 -296.5 64t-106.5 200zM178 1051l234 290h69l234 -290h-131l-138 178l-137 -178h-131zM205 248q0 -85 77.5 -123.5 t209.5 -38.5q60 0 124 12v318h-92q-146 0 -232.5 -41.5t-86.5 -126.5z" />
<glyph unicode="&#xe3;" horiz-adv-x="878" d="M82 248q0 131 114 199.5t320 68.5h100v109q0 85 -50 129.5t-138 44.5q-125 0 -262 -72v117q128 69 276 69q297 0 297 -280v-617q-114 -32 -254 -32q-190 0 -296.5 64t-106.5 200zM150 1051q0 116 40 177.5t115 61.5q34 0 73 -21.5t67.5 -48t61 -48t54.5 -21.5 q64 0 64 135h96q0 -115 -40.5 -177t-115.5 -62q-34 0 -73 21.5t-67.5 48t-61 48t-54.5 21.5q-63 0 -63 -135h-96zM205 248q0 -85 77.5 -123.5t209.5 -38.5q60 0 124 12v318h-92q-146 0 -232.5 -41.5t-86.5 -126.5z" />
<glyph unicode="&#xe4;" horiz-adv-x="878" d="M82 248q0 131 114 199.5t320 68.5h100v109q0 85 -50 129.5t-138 44.5q-125 0 -262 -72v117q128 69 276 69q297 0 297 -280v-617q-114 -32 -254 -32q-190 0 -296.5 64t-106.5 200zM176 1171q0 38 27.5 65.5t64.5 27.5q38 0 65 -27.5t27 -65.5q0 -37 -27 -64.5t-65 -27.5 q-37 0 -64.5 27.5t-27.5 64.5zM205 248q0 -85 77.5 -123.5t209.5 -38.5q60 0 124 12v318h-92q-146 0 -232.5 -41.5t-86.5 -126.5zM500 1171q0 38 27.5 65.5t64.5 27.5q38 0 65 -27.5t27 -65.5q0 -37 -27 -64.5t-65 -27.5q-37 0 -64.5 27.5t-27.5 64.5z" />
<glyph unicode="&#xe5;" horiz-adv-x="878" d="M82 248q0 131 114 199.5t320 68.5h100v109q0 85 -50 129.5t-138 44.5q-125 0 -262 -72v117q128 69 276 69q297 0 297 -280v-617q-114 -32 -254 -32q-190 0 -296.5 64t-106.5 200zM205 248q0 -85 77.5 -123.5t209.5 -38.5q60 0 124 12v318h-92q-146 0 -232.5 -41.5 t-86.5 -126.5zM260 1186q0 72 49.5 120t124.5 48t124.5 -48t49.5 -120t-49.5 -120t-124.5 -48t-124.5 48t-49.5 120zM342 1186q0 -39 24 -64.5t68 -25.5t68 25.5t24 64.5t-24 64.5t-68 25.5t-68 -25.5t-24 -64.5z" />
<glyph unicode="&#xe6;" horiz-adv-x="1495" d="M82 236q0 135 114 207.5t320 72.5h109q7 52 16 82q-3 108 -58 155.5t-141 47.5q-81 0 -143.5 -18.5t-132.5 -55.5v117q128 69 276 69q216 0 277 -157q58 75 140 116t179 41q174 0 274.5 -112t100.5 -303v-84h-674q9 -149 100.5 -237.5t229.5 -88.5q93 0 164.5 24 t140.5 76v-122q-117 -86 -305 -86q-107 0 -196.5 39.5t-149.5 113.5q-62 -71 -145.5 -112t-178.5 -41q-143 0 -230 67t-87 189zM205 236q0 -75 55.5 -113.5t138.5 -38.5q166 0 269 137q-42 85 -45 193h-99q-319 0 -319 -178zM741 516h549q-6 141 -71 215t-187 74 q-116 0 -195 -79t-96 -210z" />
<glyph unicode="&#xe7;" horiz-adv-x="901" d="M86 446q0 109 38 198.5t102.5 147.5t147.5 89.5t175 31.5q137 0 256 -67v-129q-120 84 -250 84q-70 0 -131.5 -23.5t-109 -67.5t-75.5 -112.5t-28 -153.5q0 -164 100 -258t252 -94q126 0 256 84v-129q-110 -56 -217 -65q-11 -88 -49.5 -165.5t-93.5 -115.5h-125 q137 127 155 283q-174 19 -288.5 143t-114.5 319z" />
<glyph unicode="&#xe8;" horiz-adv-x="966" d="M86 446q0 200 121.5 333.5t302.5 133.5q172 0 273.5 -101t101.5 -288v-84h-676v-4q0 -158 97.5 -253t234.5 -95q93 0 164.5 24t140.5 76v-122q-117 -86 -305 -86q-198 0 -326.5 126t-128.5 340zM217 543h545q-6 135 -73.5 198.5t-184.5 63.5q-106 0 -183.5 -69 t-103.5 -193zM289 1362h121l174 -311h-121z" />
<glyph unicode="&#xe9;" horiz-adv-x="966" d="M86 446q0 200 121.5 333.5t302.5 133.5q172 0 273.5 -101t101.5 -288v-84h-676v-4q0 -158 97.5 -253t234.5 -95q93 0 164.5 24t140.5 76v-122q-117 -86 -305 -86q-198 0 -326.5 126t-128.5 340zM217 543h545q-6 135 -73.5 198.5t-184.5 63.5q-106 0 -183.5 -69 t-103.5 -193zM444 1051l174 311h121l-174 -311h-121z" />
<glyph unicode="&#xea;" horiz-adv-x="966" d="M86 446q0 200 121.5 333.5t302.5 133.5q172 0 273.5 -101t101.5 -288v-84h-676v-4q0 -158 97.5 -253t234.5 -95q93 0 164.5 24t140.5 76v-122q-117 -86 -305 -86q-198 0 -326.5 126t-128.5 340zM217 543h545q-6 135 -73.5 198.5t-184.5 63.5q-106 0 -183.5 -69 t-103.5 -193zM236 1051l233 290h70l233 -290h-131l-137 178l-137 -178h-131z" />
<glyph unicode="&#xeb;" horiz-adv-x="966" d="M86 446q0 200 121.5 333.5t302.5 133.5q172 0 273.5 -101t101.5 -288v-84h-676v-4q0 -158 97.5 -253t234.5 -95q93 0 164.5 24t140.5 76v-122q-117 -86 -305 -86q-198 0 -326.5 126t-128.5 340zM217 543h545q-6 135 -73.5 198.5t-184.5 63.5q-106 0 -183.5 -69 t-103.5 -193zM254 1171q0 38 27.5 65.5t64.5 27.5q38 0 65 -27.5t27 -65.5q0 -37 -27 -64.5t-65 -27.5q-37 0 -64.5 27.5t-27.5 64.5zM578 1171q0 38 27.5 65.5t64.5 27.5q38 0 65 -27.5t27 -65.5q0 -37 -27 -64.5t-65 -27.5q-37 0 -64.5 27.5t-27.5 64.5z" />
<glyph unicode="&#xec;" horiz-adv-x="430" d="M-18 1362h120l174 -311h-120zM154 0v893h122v-893h-122z" />
<glyph unicode="&#xed;" horiz-adv-x="430" d="M154 0v893h122v-893h-122zM158 1051l174 311h121l-174 -311h-121z" />
<glyph unicode="&#xee;" horiz-adv-x="430" d="M-53 1051l233 290h70l233 -290h-131l-137 178l-137 -178h-131zM154 0v893h122v-893h-122z" />
<glyph unicode="&#xef;" horiz-adv-x="430" d="M-39 1171q0 38 27.5 65.5t64.5 27.5q38 0 65 -27.5t27 -65.5q0 -37 -27 -64.5t-65 -27.5q-37 0 -64.5 27.5t-27.5 64.5zM154 0v893h122v-893h-122zM285 1171q0 38 27.5 65.5t64.5 27.5q38 0 65 -27.5t27 -65.5q0 -37 -27 -64.5t-65 -27.5q-37 0 -64.5 27.5t-27.5 64.5z " />
<glyph unicode="&#xf0;" horiz-adv-x="1067" d="M86 446q0 207 125 337t324 130q183 0 292 -151q-52 143 -209 317l-339 -90v96l268 72q-113 116 -273 236h162q125 -96 228 -205l227 61v-96l-158 -43q248 -301 248 -641q0 -223 -122.5 -356t-323.5 -133q-199 0 -324 129.5t-125 336.5zM211 446q0 -161 91 -260.5 t233 -99.5t232.5 99.5t90.5 260.5q0 162 -90.5 261.5t-232.5 99.5t-233 -100t-91 -261z" />
<glyph unicode="&#xf1;" horiz-adv-x="1034" d="M154 0v846q185 67 374 67q363 0 363 -311v-602h-123v578q0 221 -250 221q-112 0 -242 -33v-766h-122zM223 1051q0 115 40.5 177t115.5 62q34 0 73 -21.5t67.5 -48t61 -48t54.5 -21.5q63 0 63 135h97q0 -115 -40.5 -177t-115.5 -62q-34 0 -73 21.5t-67.5 48t-61 48 t-54.5 21.5q-64 0 -64 -135h-96z" />
<glyph unicode="&#xf2;" horiz-adv-x="1069" d="M86 446q0 207 125 337t324 130t323.5 -130t124.5 -337t-124.5 -336.5t-323.5 -129.5t-324 129.5t-125 336.5zM211 446q0 -161 91 -260.5t233 -99.5t232.5 99.5t90.5 260.5q0 162 -90.5 261.5t-232.5 99.5t-233 -100t-91 -261zM305 1362h121l174 -311h-121z" />
<glyph unicode="&#xf3;" horiz-adv-x="1069" d="M86 446q0 207 125 337t324 130t323.5 -130t124.5 -337t-124.5 -336.5t-323.5 -129.5t-324 129.5t-125 336.5zM211 446q0 -161 91 -260.5t233 -99.5t232.5 99.5t90.5 260.5q0 162 -90.5 261.5t-232.5 99.5t-233 -100t-91 -261zM461 1051l174 311h121l-174 -311h-121z" />
<glyph unicode="&#xf4;" horiz-adv-x="1069" d="M86 446q0 207 125 337t324 130t323.5 -130t124.5 -337t-124.5 -336.5t-323.5 -129.5t-324 129.5t-125 336.5zM211 446q0 -161 91 -260.5t233 -99.5t232.5 99.5t90.5 260.5q0 162 -90.5 261.5t-232.5 99.5t-233 -100t-91 -261zM266 1051l234 290h69l234 -290h-131 l-137 178l-138 -178h-131z" />
<glyph unicode="&#xf5;" horiz-adv-x="1069" d="M86 446q0 207 125 337t324 130t323.5 -130t124.5 -337t-124.5 -336.5t-323.5 -129.5t-324 129.5t-125 336.5zM211 446q0 -161 91 -260.5t233 -99.5t232.5 99.5t90.5 260.5q0 162 -90.5 261.5t-232.5 99.5t-233 -100t-91 -261zM250 1051q0 115 40.5 177t115.5 62 q34 0 73 -21.5t67.5 -48t61 -48t54.5 -21.5q63 0 63 135h96q0 -116 -40 -177.5t-115 -61.5q-34 0 -73 21.5t-67.5 48t-61 48t-54.5 21.5q-64 0 -64 -135h-96z" />
<glyph unicode="&#xf6;" horiz-adv-x="1069" d="M86 446q0 207 125 337t324 130t323.5 -130t124.5 -337t-124.5 -336.5t-323.5 -129.5t-324 129.5t-125 336.5zM211 446q0 -161 91 -260.5t233 -99.5t232.5 99.5t90.5 260.5q0 162 -90.5 261.5t-232.5 99.5t-233 -100t-91 -261zM281 1171q0 38 27.5 65.5t64.5 27.5 q38 0 65 -27.5t27 -65.5q0 -37 -27 -64.5t-65 -27.5q-37 0 -64.5 27.5t-27.5 64.5zM604 1171q0 38 27.5 65.5t64.5 27.5q38 0 65 -27.5t27 -65.5q0 -37 -27 -64.5t-65 -27.5q-37 0 -64.5 27.5t-27.5 64.5z" />
<glyph unicode="&#xf7;" horiz-adv-x="940" d="M82 545v108h776v-108h-776zM369 301q0 41 29.5 70.5t70.5 29.5t71.5 -29.5t30.5 -70.5t-30.5 -71.5t-71.5 -30.5t-70.5 30.5t-29.5 71.5zM369 899q0 41 29.5 70.5t70.5 29.5t71.5 -29.5t30.5 -70.5t-30.5 -71.5t-71.5 -30.5t-70.5 30.5t-29.5 71.5z" />
<glyph unicode="&#xf8;" horiz-adv-x="1069" d="M66 -20l129 147q-109 125 -109 319q0 207 125 337t324 130q156 0 272 -86l76 86h121l-130 -147q109 -131 109 -320q0 -207 -124.5 -336.5t-323.5 -129.5q-159 0 -275 83l-74 -83h-120zM211 446q0 -137 61 -229l461 526q-83 64 -198 64q-142 0 -233 -100t-91 -261z M336 150q80 -64 199 -64q142 0 232.5 99.5t90.5 260.5q0 136 -63 230z" />
<glyph unicode="&#xf9;" horiz-adv-x="1003" d="M133 291v602h123v-596q0 -211 274 -211q98 0 197 12v795h123v-883q-163 -30 -311 -30q-200 0 -303 74t-103 237zM262 1362h121l174 -311h-121z" />
<glyph unicode="&#xfa;" horiz-adv-x="1003" d="M133 291v602h123v-596q0 -211 274 -211q98 0 197 12v795h123v-883q-163 -30 -311 -30q-200 0 -303 74t-103 237zM418 1051l174 311h121l-174 -311h-121z" />
<glyph unicode="&#xfb;" horiz-adv-x="1003" d="M133 291v602h123v-596q0 -211 274 -211q98 0 197 12v795h123v-883q-163 -30 -311 -30q-200 0 -303 74t-103 237zM223 1051l234 290h69l234 -290h-131l-137 178l-138 -178h-131z" />
<glyph unicode="&#xfc;" horiz-adv-x="1003" d="M133 291v602h123v-596q0 -211 274 -211q98 0 197 12v795h123v-883q-163 -30 -311 -30q-200 0 -303 74t-103 237zM238 1171q0 38 27.5 65.5t64.5 27.5q38 0 65 -27.5t27 -65.5q0 -37 -27 -64.5t-65 -27.5q-37 0 -64.5 27.5t-27.5 64.5zM561 1171q0 38 27.5 65.5t64.5 27.5 q38 0 65 -27.5t27 -65.5q0 -37 -27 -64.5t-65 -27.5q-37 0 -64.5 27.5t-27.5 64.5z" />
<glyph unicode="&#xfd;" horiz-adv-x="876" d="M10 893h135l299 -813l295 813h127l-483 -1262h-121l121 310zM365 1051l174 311h120l-174 -311h-120z" />
<glyph unicode="&#xfe;" horiz-adv-x="1044" d="M154 -369v1762h122v-525q31 18 91 31.5t122 13.5q209 0 339 -119.5t130 -342.5q0 -217 -132 -344t-353 -127q-123 0 -197 36v-385h-122zM276 123q84 -37 197 -37q164 0 262.5 98t98.5 267q0 165 -99 258.5t-246 93.5q-129 0 -213 -41v-639z" />
<glyph unicode="&#xff;" horiz-adv-x="876" d="M10 893h135l299 -813l295 813h127l-483 -1262h-121l121 310zM184 1171q0 38 27.5 65.5t64.5 27.5q38 0 65.5 -27.5t27.5 -65.5q0 -37 -27.5 -64.5t-65.5 -27.5q-37 0 -64.5 27.5t-27.5 64.5zM508 1171q0 38 27.5 65.5t64.5 27.5q38 0 65 -27.5t27 -65.5q0 -37 -27 -64.5 t-65 -27.5q-37 0 -64.5 27.5t-27.5 64.5z" />
<glyph unicode="&#x152;" horiz-adv-x="1648" d="M92 608q0 182 84.5 322t227 213.5t317.5 73.5h817v-111h-565v-430h528v-111h-528v-454h573v-111h-825q-175 0 -317.5 73t-227 213t-84.5 322zM221 608q0 -152 68.5 -266.5t181 -172.5t250.5 -58h125v995h-125q-103 0 -194 -34.5t-159 -97t-107.5 -157.5t-39.5 -209z" />
<glyph unicode="&#x153;" horiz-adv-x="1732" d="M86 446q0 207 125 337t324 130q127 0 227 -55.5t158 -155.5q56 98 149 154.5t207 56.5q172 0 273.5 -101t101.5 -288v-84h-676v-4q0 -158 97.5 -253t234.5 -95q93 0 164.5 24t140.5 76v-122q-117 -86 -305 -86q-127 0 -229 54.5t-160 153.5q-57 -99 -156.5 -153.5 t-226.5 -54.5q-199 0 -324 129.5t-125 336.5zM211 446q0 -161 91 -260.5t233 -99.5t232.5 99.5t90.5 260.5q0 162 -90.5 261.5t-232.5 99.5t-233 -100t-91 -261zM983 543h545q-6 135 -73.5 198.5t-184.5 63.5q-106 0 -183.5 -69t-103.5 -193z" />
<glyph unicode="&#x178;" horiz-adv-x="1052" d="M20 1217h140l366 -617l367 617h139l-442 -732v-485h-127v485zM272 1405q0 38 28 65t65 27q38 0 65 -27t27 -65q0 -37 -27 -64.5t-65 -27.5q-37 0 -65 27.5t-28 64.5zM596 1405q0 38 27.5 65t64.5 27q38 0 65 -27t27 -65q0 -37 -27 -64.5t-65 -27.5q-37 0 -64.5 27.5 t-27.5 64.5z" />
<glyph unicode="&#x2c6;" horiz-adv-x="1024" d="M244 1051l233 290h70l233 -290h-131l-137 178l-137 -178h-131z" />
<glyph unicode="&#x2dc;" horiz-adv-x="1024" d="M225 1051q0 115 40.5 177t115.5 62q34 0 73 -21.5t67.5 -48t61 -48t54.5 -21.5q63 0 63 135h97q0 -115 -40.5 -177t-115.5 -62q-34 0 -73 21.5t-67.5 48t-61 48t-54.5 21.5q-63 0 -63 -135h-97z" />
<glyph unicode="&#x2000;" horiz-adv-x="817" />
<glyph unicode="&#x2001;" horiz-adv-x="1634" />
<glyph unicode="&#x2002;" horiz-adv-x="817" />
<glyph unicode="&#x2003;" horiz-adv-x="1634" />
<glyph unicode="&#x2004;" horiz-adv-x="544" />
<glyph unicode="&#x2005;" horiz-adv-x="408" />
<glyph unicode="&#x2006;" horiz-adv-x="272" />
<glyph unicode="&#x2007;" horiz-adv-x="272" />
<glyph unicode="&#x2008;" horiz-adv-x="204" />
<glyph unicode="&#x2009;" horiz-adv-x="326" />
<glyph unicode="&#x200a;" horiz-adv-x="90" />
<glyph unicode="&#x2010;" horiz-adv-x="727" d="M143 475v111h441v-111h-441z" />
<glyph unicode="&#x2011;" horiz-adv-x="727" d="M143 475v111h441v-111h-441z" />
<glyph unicode="&#x2012;" horiz-adv-x="727" d="M143 475v111h441v-111h-441z" />
<glyph unicode="&#x2013;" horiz-adv-x="1171" d="M143 481v99h885v-99h-885z" />
<glyph unicode="&#x2014;" horiz-adv-x="1949" d="M143 481v99h1663v-99h-1663z" />
<glyph unicode="&#x2018;" horiz-adv-x="425" d="M143 936q0 121 59 224t146 159h98q-159 -165 -159 -383h-144z" />
<glyph unicode="&#x2019;" horiz-adv-x="425" d="M51 936q160 167 160 383h143q0 -121 -58.5 -224t-145.5 -159h-99z" />
<glyph unicode="&#x201a;" horiz-adv-x="425" d="M-10 -219q160 167 160 383h143q0 -121 -59 -224t-146 -159h-98z" />
<glyph unicode="&#x201c;" horiz-adv-x="704" d="M143 936q0 121 59 224t146 159h98q-159 -165 -159 -383h-144zM422 936q0 121 59 224t146 159h98q-160 -167 -160 -383h-143z" />
<glyph unicode="&#x201d;" horiz-adv-x="704" d="M51 936q160 167 160 383h143q0 -121 -58.5 -224t-145.5 -159h-99zM330 936q159 165 159 383h144q0 -121 -59 -224t-146 -159h-98z" />
<glyph unicode="&#x201e;" horiz-adv-x="704" d="M-10 -219q160 167 160 383h143q0 -121 -59 -224t-146 -159h-98zM268 -219q160 167 160 383h143q0 -121 -58.5 -224t-145.5 -159h-99z" />
<glyph unicode="&#x2022;" horiz-adv-x="655" d="M143 530q0 76 54.5 130.5t130.5 54.5t130 -54t54 -131q0 -76 -54 -130t-130 -54q-77 0 -131 54t-54 130z" />
<glyph unicode="&#x2026;" horiz-adv-x="1449" d="M143 84q0 41 30 70.5t71 29.5t71.5 -29.5t30.5 -70.5t-30.5 -71.5t-71.5 -30.5t-71 30.5t-30 71.5zM625 84q0 41 29.5 70.5t72.5 29.5q41 0 70.5 -29.5t29.5 -70.5t-29.5 -71.5t-70.5 -30.5q-42 0 -72 30t-30 72zM1104 84q0 41 29.5 70.5t70.5 29.5q43 0 73 -29.5 t30 -70.5q0 -42 -30.5 -72t-72.5 -30q-41 0 -70.5 30.5t-29.5 71.5z" />
<glyph unicode="&#x202f;" horiz-adv-x="326" />
<glyph unicode="&#x2039;" horiz-adv-x="634" d="M123 440l252 324h137l-250 -324l250 -323h-137z" />
<glyph unicode="&#x203a;" horiz-adv-x="634" d="M123 117l250 323l-250 324h137l252 -324l-252 -323h-137z" />
<glyph unicode="&#x205f;" horiz-adv-x="408" />
<glyph unicode="&#x20ac;" horiz-adv-x="1052" d="M41 451v104h131q-2 18 -2 53q0 47 2 70h-131v104h145q40 210 173 332.5t329 122.5q153 0 277 -88v-148q-106 121 -279 121q-135 0 -236 -91t-139 -249h402l-21 -104h-397q-2 -23 -2 -70q0 -37 2 -53h371l-21 -104h-336q34 -165 136 -261t241 -96q82 0 157.5 30.5 t127.5 90.5v-147q-124 -88 -283 -88q-199 0 -333 127.5t-173 343.5h-141z" />
<glyph unicode="&#x2122;" horiz-adv-x="1388" d="M82 1130v87h463v-87h-178v-481h-105v481h-180zM586 649l90 568h125l139 -451l135 451h125l90 -568h-100l-70 441l-133 -441h-98l-135 441l-70 -441h-98z" />
<glyph unicode="&#xe000;" horiz-adv-x="890" d="M0 0v891h891v-891h-891z" />
</font>
</defs>
</svg>
